{
    "asset" : {
        "copyright" : "@vybzmaha",
        "generator" : "Khronos glTF Blender I/O v1.6.16",
        "version" : "2.0"
    },
    "scene" : 0,
    "scenes" : [
        {
            "name" : "Scene",
            "nodes" : [
                0
            ]
        }
    ],
    "nodes" : [
        {
            "mesh" : 0,
            "name" : "Box.002_Box.004",
            "rotation" : [
                0.726430356502533,
                0,
                0,
                0.6872400641441345
            ]
        }
    ],
    "materials" : [
        {
            "doubleSided" : true,
            "name" : "MAIN-body",
            "normalTexture" : {
                "index" : 0,
                "scale" : 1.7000001668930054
            },
            "pbrMetallicRoughness" : {
                "baseColorTexture" : {
                    "index" : 1
                },
                "metallicFactor" : 0,
                "metallicRoughnessTexture" : {
                    "index" : 2
                }
            }
        }
    ],
    "meshes" : [
        {
            "name" : "Box.002_Box.004",
            "primitives" : [
                {
                    "attributes" : {
                        "POSITION" : 0,
                        "NORMAL" : 1,
                        "TEXCOORD_0" : 2
                    },
                    "indices" : 3,
                    "material" : 0
                }
            ]
        }
    ],
    "textures" : [
        {
            "sampler" : 0,
            "source" : 0
        },
        {
            "sampler" : 0,
            "source" : 1
        },
        {
            "sampler" : 0,
            "source" : 2
        }
    ],
    "images" : [
        {
            "bufferView" : 4,
            "mimeType" : "image/png",
            "name" : "MAIN-body_Normal_OpenGL"
        },
        {
            "bufferView" : 5,
            "mimeType" : "image/png",
            "name" : "MAIN-body_Base_Color"
        },
        {
            "bufferView" : 6,
            "mimeType" : "image/png",
            "name" : "MAIN-body_Roughness"
        }
    ],
    "accessors" : [
        {
            "bufferView" : 0,
            "componentType" : 5126,
            "count" : 6415,
            "max" : [
                1.6905676126480103,
                2.149167776107788,
                0.07397568225860596
            ],
            "min" : [
                -1.6917264461517334,
                -2.8695430755615234,
                -4.765611171722412
            ],
            "type" : "VEC3"
        },
        {
            "bufferView" : 1,
            "componentType" : 5126,
            "count" : 6415,
            "type" : "VEC3"
        },
        {
            "bufferView" : 2,
            "componentType" : 5126,
            "count" : 6415,
            "type" : "VEC2"
        },
        {
            "bufferView" : 3,
            "componentType" : 5123,
            "count" : 18288,
            "type" : "SCALAR"
        }
    ],
    "bufferViews" : [
        {
            "buffer" : 0,
            "byteLength" : 76980,
            "byteOffset" : 0
        },
        {
            "buffer" : 0,
            "byteLength" : 76980,
            "byteOffset" : 76980
        },
        {
            "buffer" : 0,
            "byteLength" : 51320,
            "byteOffset" : 153960
        },
        {
            "buffer" : 0,
            "byteLength" : 36576,
            "byteOffset" : 205280
        },
        {
            "buffer" : 0,
            "byteLength" : 1308829,
            "byteOffset" : 241856
        },
        {
            "buffer" : 0,
            "byteLength" : 366080,
            "byteOffset" : 1550688
        },
        {
            "buffer" : 0,
            "byteLength" : 209126,
            "byteOffset" : 1916768
        }
    ],
    "samplers" : [
        {
            "magFilter" : 9729,
            "minFilter" : 9987
        }
    ],
    "buffers" : [
        {
            "byteLength" : 2125896,
            "uri" : "data:application/octet-stream;base64,"
        }
    ]
}
